<svg xmlns="http://www.w3.org/2000/svg"  viewBox="0 0 40 40" width="40px" height="40px"><path fill="none" stroke="#f78f8f" stroke-miterlimit="10" d="M31.014 7.206L36.365 24.143M8.986 32.794L3.635 15.857M35.234 9.502L38.5 19.84M4.766 30.498L1.5 20.16"/><path fill="#b0c1d4" d="M16.618,38.5c-0.851,0-1.595-0.546-1.853-1.359L5.933,9.183C5.776,8.688,5.821,8.161,6.062,7.701 C6.301,7.24,6.705,6.9,7.2,6.744l16.31-5.153c0.191-0.06,0.389-0.091,0.586-0.091c0.852,0,1.596,0.546,1.853,1.358l8.834,27.959 c0.322,1.021-0.246,2.115-1.268,2.438l-16.31,5.153C17.014,38.469,16.816,38.5,16.618,38.5z"/><path fill="#66798f" d="M24.096,2L24.096,2c0.632,0,1.185,0.406,1.376,1.009l8.834,27.959 c0.24,0.759-0.183,1.571-0.941,1.811l-16.309,5.153C16.912,37.977,16.765,38,16.619,38c-0.632,0-1.185-0.406-1.376-1.009 L6.409,9.032C6.293,8.664,6.327,8.273,6.505,7.931c0.178-0.342,0.478-0.594,0.846-0.711L23.66,2.068 C23.802,2.023,23.949,2,24.096,2 M24.096,1c-0.244,0-0.492,0.037-0.737,0.114L7.05,6.267c-1.287,0.407-2,1.779-1.594,3.066 l8.834,27.959C14.619,38.334,15.581,39,16.619,39c0.244,0,0.492-0.037,0.737-0.114l16.309-5.153c1.287-0.407,2-1.779,1.594-3.066 L26.425,2.708C26.096,1.666,25.133,1,24.096,1L24.096,1z"/><path fill="#f2faff" d="M9.677 7.09H30.668V31.746H9.677z" transform="rotate(-17.536 20.17 19.415)"/><path fill="#66798f" d="M26.141,5.128l7.127,22.557l-19.062,6.023L7.079,11.15L26.141,5.128 M26.793,3.873L5.824,10.498 l7.729,24.464l20.969-6.625L26.793,3.873L26.793,3.873z"/><path fill="none" stroke="#66798f" stroke-miterlimit="10" d="M22.26 34.133L26.92 32.661"/></svg>