<svg xmlns="http://www.w3.org/2000/svg"  viewBox="0 0 50 50" width="50px" height="50px"><path d="M 6.984375 1.984375 C 6.433594 1.996094 5.992188 2.449219 6 3 L 6 15 C 5.996094 15.359375 6.183594 15.695313 6.496094 15.878906 C 6.808594 16.058594 7.191406 16.058594 7.503906 15.878906 C 7.816406 15.695313 8.003906 15.359375 8 15 L 17.800781 15 C 18.445313 15 19 15.554688 19 16.199219 L 19 24 C 18.640625 23.996094 18.304688 24.183594 18.121094 24.496094 C 17.941406 24.808594 17.941406 25.191406 18.121094 25.503906 C 18.304688 25.816406 18.640625 26.003906 19 26 L 19 33.800781 C 19 41.046875 24.953125 47 32.199219 47 L 42 47 C 41.996094 47.359375 42.183594 47.695313 42.496094 47.878906 C 42.808594 48.058594 43.191406 48.058594 43.503906 47.878906 C 43.816406 47.695313 44.003906 47.359375 44 47 L 44 35 C 44.003906 34.730469 43.898438 34.46875 43.707031 34.277344 C 43.515625 34.085938 43.253906 33.980469 42.984375 33.984375 C 42.433594 33.996094 41.992188 34.449219 42 35 L 32.199219 35 C 31.554688 35 31 34.445313 31 33.800781 L 31 26 C 31.359375 26.003906 31.695313 25.816406 31.878906 25.503906 C 32.058594 25.191406 32.058594 24.808594 31.878906 24.496094 C 31.695313 24.183594 31.359375 23.996094 31 24 L 31 16.199219 C 31 8.953125 25.046875 3 17.800781 3 L 8 3 C 8.003906 2.730469 7.898438 2.46875 7.707031 2.277344 C 7.515625 2.085938 7.253906 1.980469 6.984375 1.984375 Z M 8 5 L 17.800781 5 C 23.953125 5 29 10.046875 29 16.199219 L 29 24 L 21 24 L 21 16.199219 C 21 14.445313 19.554688 13 17.800781 13 L 8 13 Z M 21 26 L 29 26 L 29 33.800781 C 29 35.554688 30.445313 37 32.199219 37 L 42 37 L 42 45 L 32.199219 45 C 26.046875 45 21 39.953125 21 33.800781 Z"/></svg>